<?xml version="1.0" encoding="utf-8"?>
<!-- Generator: Adobe Illustrator 25.4.1, SVG Export Plug-In . SVG Version: 6.00 Build 0)  -->
<svg version="1.1" id="Layer_1" xmlns="http://www.w3.org/2000/svg" xmlns:xlink="http://www.w3.org/1999/xlink" x="0px" y="0px"
	 viewBox="0 0 64 64" style="enable-background:new 0 0 64 64;" xml:space="preserve">
<style type="text/css">
	.st0{fill:#181818;}
</style>
<path class="st0" d="M56.8,17.5c-2.6-2.6-5.6-4.3-8.9-4.9c3.8-4.9,3.5-12.1,3.5-12.1s-8.3-0.4-13.1,4.4c-2.1,2.2-3.3,5-3.8,7.5
	C33.3,8.6,31.1,4.3,26.8,0l-4.2,4.2c3.3,3.3,5.4,6.9,6.3,10.7c-2.7-1.8-5.8-2.7-9.3-2.7c-4.8,0-9,1.7-12.4,5.3
	C3.7,21.1,2,25.3,2,30.3c0,6.5,1.8,10.7,4.4,16c4.6,8,7.6,12.7,9,14l0.3,0.3c2.3,2.2,4.7,3.4,7.4,3.4c3.7,0,8.8-4.4,8.8-4.4
	s5.2,4.4,8.9,4.4c2.7,0,5.2-1.1,7.4-3.3l0.3-0.4c1.4-1.4,4.4-6.1,9-14c2.6-5.2,4.4-9.5,4.4-16C62,25.3,60.3,21.1,56.8,17.5z
	 M52.3,43.4c-6,10.2-7.6,12.3-7.9,12.7l-0.1,0.1l-0.1,0.1L44,56.5c-1.4,1.3-2.4,1.5-3.1,1.5c-1-0.1-3.4-1.6-5.1-3l-3.9-3.3L28,55
	c-1.6,1.4-4,2.8-4.9,3c-0.7,0-1.7-0.2-3.2-1.6l-0.2-0.3c-0.3-0.3-1.9-2.3-8-12.7C9.4,38.9,8,35.5,8,30.3c0-3.4,1.1-6.1,3.4-8.5
	c2.3-2.4,4.9-3.5,8.2-3.5c3.3,0,5.8,1,8,3.3l1.8,1.9h5.3l1.8-1.9c2.2-2.3,4.6-3.3,8-3.3c3.3,0,5.9,1.1,8.2,3.5
	c2.4,2.4,3.5,5.1,3.5,8.5C56,35.5,54.6,38.9,52.3,43.4z"/>
</svg>
