<?xml version="1.0" encoding="utf-8"?>
<!-- Generator: Adobe Illustrator 25.4.1, SVG Export Plug-In . SVG Version: 6.00 Build 0)  -->
<svg version="1.1" id="Layer_1" xmlns="http://www.w3.org/2000/svg" xmlns:xlink="http://www.w3.org/1999/xlink" x="0px" y="0px"
	 viewBox="0 0 64 64" style="enable-background:new 0 0 64 64;" xml:space="preserve">
<style type="text/css">
	.st0{fill:#FFFFFF;}
</style>
<path class="st0" d="M56.6,3.6C53.8,1.3,50.3,0,46.8,0c-3.1,0-6.3,1-9.2,3.2c-2,1.6-5.6,4.6-5.6,4.6s-3.6-3-5.6-4.6
	C23.5,1,20.3,0,17.2,0c-3.5,0-7,1.3-9.9,3.6C3.2,7,0.2,10.6,0,17.3C0,40,32,64,32,64s32-24,32-46.7C63.8,10.6,60.8,7,56.6,3.6z
	 M32,56.3C22.4,48.2,6.1,31.5,6,17.4c0.1-4.3,1.8-6.4,5.1-9.1C13,6.8,15.1,6,17.2,6c1.9,0,3.8,0.7,5.5,2c1.9,1.5,5.3,4.4,5.4,4.4
	l3.9,3.3l3.9-3.3c0,0,3.5-3,5.4-4.4c1.7-1.3,3.6-2,5.5-2c2.1,0,4.3,0.8,6.1,2.3c3.4,2.7,5,4.8,5.1,9.1C57.9,31.5,41.6,48.2,32,56.3z
	 M35,20.6h-6V28h-7.4v6H29v7.4h6V34h7.4v-6H35V20.6z"/>
</svg>
