<?xml version="1.0" encoding="utf-8"?>
<!-- Generator: Adobe Illustrator 25.4.1, SVG Export Plug-In . SVG Version: 6.00 Build 0)  -->
<svg version="1.1" id="Layer_1" xmlns="http://www.w3.org/2000/svg" xmlns:xlink="http://www.w3.org/1999/xlink" x="0px" y="0px"
	 viewBox="0 0 24 24" style="enable-background:new 0 0 24 24;" xml:space="preserve">
<style type="text/css">
	.st0{fill:#181818;}
</style>
<path class="st0" d="M6.7,0C3,0,0,3,0,6.7v10.7C0,21,3,24,6.7,24h10.7c3.7,0,6.7-3,6.7-6.7V6.7C24,3,21,0,17.3,0H6.7z M20,2.7
	c0.7,0,1.3,0.6,1.3,1.3S20.7,5.3,20,5.3S18.7,4.7,18.7,4S19.3,2.7,20,2.7z M12,5.3c3.7,0,6.7,3,6.7,6.7s-3,6.7-6.7,6.7
	s-6.7-3-6.7-6.7S8.3,5.3,12,5.3z M12,8c-2.2,0-4,1.8-4,4s1.8,4,4,4s4-1.8,4-4S14.2,8,12,8z"/>
</svg>
