<?xml version="1.0" encoding="utf-8"?>
<!-- Generator: Adobe Illustrator 25.4.1, SVG Export Plug-In . SVG Version: 6.00 Build 0)  -->
<svg version="1.1" id="Layer_1" xmlns="http://www.w3.org/2000/svg" xmlns:xlink="http://www.w3.org/1999/xlink" x="0px" y="0px"
	 viewBox="0 0 64 64" style="enable-background:new 0 0 64 64;" xml:space="preserve">
<style type="text/css">
	.st0{fill:#181818;}
</style>
<path class="st0" d="M34.2,27.8c3.6-3.7,5.9-9.6,5.9-15.1C40.1,4,34.1,0,26.6,0S13.2,4,13.2,12.7c0,5.4,2.3,11.3,5.9,15
	C9.9,32.6,2,46,2,64h6c0-20,10.9-32.2,18.6-32.2S45.3,44,45.3,64h6C51.3,46,43.4,32.6,34.2,27.8z M26.6,25.4
	c-3.1,0-7.5-6.4-7.5-12.7c0-1.7,0-6.7,7.5-6.7s7.5,5.1,7.5,6.7C34.1,19,29.8,25.4,26.6,25.4z M52.3,31c1.6-2.8,3.9-7.7,3.9-12.3
	C56.2,11.6,51.3,7,43.7,7v6c3,0,6.5,1,6.5,5.8c0,4.1-3.1,9.5-4.2,11.2l-1.6,2.4l2.3,1.7C47,34.3,56,41.2,56,54h6
	C62,42.1,55.7,34.4,52.3,31z"/>
</svg>
