<?xml version="1.0" encoding="utf-8"?>
<!-- Generator: Adobe Illustrator 25.4.1, SVG Export Plug-In . SVG Version: 6.00 Build 0)  -->
<svg version="1.1" id="Layer_1" xmlns="http://www.w3.org/2000/svg" xmlns:xlink="http://www.w3.org/1999/xlink" x="0px" y="0px"
	 viewBox="0 0 64 64" style="enable-background:new 0 0 64 64;" xml:space="preserve">
<style type="text/css">
	.st0{fill:#181818;}
</style>
<path class="st0" d="M31.9,0C22.4,3.9,15.5,7.3,4,7.9c0,0,0,21.9,0,28.1c0,16.7,28,28,28,28s28-11.4,28-28c0-6.2,0-28.1,0-28.1
	C48.5,7.3,41.5,3.9,31.9,0z M54,36c0,9.2-14.5,17.9-22,21.5C24.5,53.9,10,45.2,10,36V13.3c8.2-1.2,14.4-3.7,21.4-6.6
	c0.2-0.1,0.4-0.2,0.6-0.3c0.3,0.1,0.6,0.2,0.8,0.3c6.9,2.8,13,5.4,21.2,6.5V36z M24.6,25.9l-4.2,4.2l11.4,11.4l15.8-15.8l-4.2-4.2
	L31.8,33.1L24.6,25.9z"/>
</svg>
