<?xml version="1.0" encoding="utf-8"?>
<!-- Generator: Adobe Illustrator 25.4.1, SVG Export Plug-In . SVG Version: 6.00 Build 0)  -->
<svg version="1.1" id="Layer_1" xmlns="http://www.w3.org/2000/svg" xmlns:xlink="http://www.w3.org/1999/xlink" x="0px" y="0px"
	 viewBox="0 0 64 64" style="enable-background:new 0 0 64 64;" xml:space="preserve">
<style type="text/css">
	.st0{fill:#FFFFFF;}
</style>
<path class="st0" d="M35,8.2V6h5V0H24v6h5v2.2C14.9,9.7,4,21.5,4,36c0,15.5,12.5,28,28,28s28-12.5,28-28C60,21.5,49.1,9.7,35,8.2z
	 M32,58c-12.1,0-22-9.9-22-22s9.9-22,22-22s22,9.9,22,22S44.1,58,32,58z M35,22h-6v15.2l10.2,10.2l4.2-4.2L35,34.8V22z"/>
</svg>
