<?xml version="1.0" encoding="utf-8"?>
<!-- Generator: Adobe Illustrator 25.4.1, SVG Export Plug-In . SVG Version: 6.00 Build 0)  -->
<svg version="1.1" id="Layer_1" xmlns="http://www.w3.org/2000/svg" xmlns:xlink="http://www.w3.org/1999/xlink" x="0px" y="0px"
	 viewBox="0 0 24 24" style="enable-background:new 0 0 24 24;" xml:space="preserve">
<style type="text/css">
	.st0{fill:#181818;}
</style>
<path class="st0" d="M24,2c-0.9,0.6-2.8,1.4-3.9,1.6H20c-1-1-2.3-1.6-3.8-1.6c-3,0-5.4,2.5-5.4,5.6c0,0.2,0,0.5,0,0.6
	c-4,0-7.1-2.2-9.3-5C1.3,3.9,1.2,4.9,1.2,5.8c0,1.8,1.3,3.5,3.4,4.5c-0.4,0.1-0.8,0.2-1.2,0.2c-0.7,0-1.4-0.2-2.1-0.8c0,0,0,0,0,0.1
	c0,2.4,2.5,4.1,4.7,4.6c-0.4,0.3-1.4,0.3-1.8,0.3c-0.3,0-1.4-0.1-1.7-0.2c0.6,2,2.8,3.1,5,3.2c-1.7,1.4-2.8,1.9-6.2,1.9H0
	C2.1,20.9,4.9,22,7.6,22c8.9,0,14-7.1,14-13.8c0-0.1,0-0.3,0-0.6c0,0,0,0,0-0.1V7.4c0-0.2,0-0.3,0-0.4c0.9-0.7,1.8-1.6,2.4-2.6
	c-0.9,0.4-1.8,0.7-2.8,0.8C22.2,4.7,23.6,3.2,24,2z"/>
</svg>
