<?xml version="1.0" encoding="utf-8"?>
<!-- Generator: Adobe Illustrator 25.4.1, SVG Export Plug-In . SVG Version: 6.00 Build 0)  -->
<svg version="1.1" id="Layer_1" xmlns="http://www.w3.org/2000/svg" xmlns:xlink="http://www.w3.org/1999/xlink" x="0px" y="0px"
	 viewBox="0 0 250 64" style="enable-background:new 0 0 250 64;" xml:space="preserve">
<style type="text/css">
	.st0{fill:#181818;}
	.st1{fill:#FF841F;}
</style>
<path class="st0" d="M163.1,15.9h-22.7v10.2h20.4v15.5h-20.4V64h-17.6V0h40.3V15.9z"/>
<path class="st0" d="M172.5,64V0h17.7v64H172.5z"/>
<path class="st0" d="M250,0v15.9h-17.3V64h-17.5V15.9H198V0H250z"/>
<g>
	<path class="st0" d="M99.7,0h20.1L102,32l17.7,32h-20L81.9,32L99.7,0z"/>
</g>
<g>
	<path class="st1" d="M80.3,0H60.2l17.7,32L60.2,64h20.1L98,32L80.3,0z"/>
</g>
<g>
	<path class="st1" d="M50.2,0H30.1l17.7,32L30.1,64h20.1l17.7-32L50.2,0z"/>
</g>
<g>
	<path class="st1" d="M20.1,0H0l17.7,32L0,64h20.1l17.7-32L20.1,0z"/>
</g>
</svg>
